<svg width="497" height="497" viewBox="0 0 497 497" fill="none" xmlns="http://www.w3.org/2000/svg">
<g clip-path="url(#clip0_51_72)">
<path d="M248.503 493.085C383.582 493.085 493.085 383.582 493.085 248.503C493.085 113.425 383.582 3.92236 248.503 3.92236C113.425 3.92236 3.92236 113.425 3.92236 248.503C3.92236 383.582 113.425 493.085 248.503 493.085Z" fill="#6A0DAD" stroke="#4B0082" stroke-width="11.2" stroke-miterlimit="5.6"/>
<path d="M283.441 118.449H213.559C203.912 118.449 196.091 126.27 196.091 135.917V205.799C196.091 215.446 203.912 223.267 213.559 223.267H283.441C293.088 223.267 300.909 215.446 300.909 205.799V135.917C300.909 126.27 293.088 118.449 283.441 118.449Z" fill="#9370DB" stroke="#4B0082" stroke-width="11.2" stroke-miterlimit="5.6"/>
<path d="M248.504 118.449V66.0361" stroke="#4B0082" stroke-width="11.2" stroke-miterlimit="5.6"/>
<path d="M248.503 74.7702C258.151 74.7702 265.972 66.9492 265.972 57.3016C265.972 47.654 258.151 39.833 248.503 39.833C238.856 39.833 231.035 47.654 231.035 57.3016C231.035 66.9492 238.856 74.7702 248.503 74.7702Z" fill="#4B0082"/>
<path d="M265.972 223.267H231.028C221.38 223.267 213.559 231.088 213.559 240.736V345.554C213.559 355.202 221.38 363.023 231.028 363.023H265.972C275.62 363.023 283.441 355.202 283.441 345.554V240.736C283.441 231.088 275.62 223.267 265.972 223.267Z" fill="#6A0DAD" stroke="#4B0082" stroke-width="11.2" stroke-miterlimit="5.6"/>
<path d="M213.559 240.736L113.735 315.604" stroke="#4B0082" stroke-width="16.8" stroke-miterlimit="5.6"/>
<path d="M283.441 240.736L383.265 315.604" stroke="#4B0082" stroke-width="16.8" stroke-miterlimit="5.6"/>
<path d="M231.028 363.023L188.141 448.804" stroke="#4B0082" stroke-width="16.8" stroke-miterlimit="5.6"/>
<path d="M265.972 363.023L308.859 448.804" stroke="#4B0082" stroke-width="16.8" stroke-miterlimit="5.6"/>
<path d="M229.781 174.216C235.293 174.216 239.762 169.748 239.762 164.235C239.762 158.723 235.293 154.254 229.781 154.254C224.269 154.254 219.8 158.723 219.8 164.235C219.8 169.748 224.269 174.216 229.781 174.216Z" fill="white"/>
<path d="M267.219 174.216C272.731 174.216 277.2 169.748 277.2 164.235C277.2 158.723 272.731 154.254 267.219 154.254C261.706 154.254 257.238 158.723 257.238 164.235C257.238 169.748 261.706 174.216 267.219 174.216Z" fill="white"/>
<path d="M229.781 167.976C231.847 167.976 233.521 166.301 233.521 164.235C233.521 162.17 231.847 160.495 229.781 160.495C227.715 160.495 226.041 162.17 226.041 164.235C226.041 166.301 227.715 167.976 229.781 167.976Z" fill="#4B0082"/>
<path d="M267.219 167.976C269.284 167.976 270.959 166.301 270.959 164.235C270.959 162.17 269.284 160.495 267.219 160.495C265.153 160.495 263.479 162.17 263.479 164.235C263.479 166.301 265.153 167.976 267.219 167.976Z" fill="#4B0082"/>
<path d="M223.54 151.761C227.701 147.6 231.861 147.6 236.022 151.761" stroke="#4B0082" stroke-width="2"/>
<path d="M260.978 151.761C265.139 147.6 269.299 147.6 273.46 151.761" stroke="#4B0082" stroke-width="2"/>
<path d="M229.781 189.191C242.263 201.673 254.737 201.673 267.219 189.191" stroke="#4B0082" stroke-width="3"/>
</g>
<defs>
<clipPath id="clip0_51_72">
<rect width="497" height="497" fill="white"/>
</clipPath>
</defs>
</svg>
