<svg width="700" height="700" viewBox="0 0 700 700" fill="none" xmlns="http://www.w3.org/2000/svg">
<path opacity="0.35" d="M164 630C150.745 630 140 619.255 140 606V117.333C140 104.078 150.745 93.333 164 93.333H398.949C404.983 93.333 410.795 95.6054 415.228 99.6977L552.279 226.206C557.201 230.749 560 237.143 560 243.841V606C560 619.255 549.255 630 536 630H164Z" fill="#4B0082"/>
<path d="M164 606.667C150.745 606.667 140 595.922 140 582.667V94C140 80.7451 150.745 70 164 70H398.949C404.983 70 410.795 72.2724 415.228 76.3647L552.279 202.873C557.201 207.416 560 213.81 560 220.508V582.667C560 595.922 549.255 606.667 536 606.667H164Z" fill="#6A0DAD"/>
<path opacity="0.35" d="M408.333 93.333V250.833L560 210L408.333 93.333Z" fill="#4B0082"/>
<path d="M408.333 70V210H560L408.333 70Z" fill="#9370DB"/>
<path opacity="0.35" d="M215.833 501.667H484.167V536.667H215.833V501.667Z" fill="#4B0082"/>
<path opacity="0.35" d="M215.833 420H484.167V455H215.833V420Z" fill="#4B0082"/>
<path opacity="0.35" d="M215.833 338.333H484.167V373.333H215.833V338.333Z" fill="#4B0082"/>
<path d="M215.833 484.167H484.167V519.167H215.833V484.167Z" fill="#9370DB"/>
<path d="M215.833 402.5H484.167V437.5H215.833V402.5Z" fill="#9370DB"/>
<path d="M215.833 320.833H484.167V355.833H215.833V320.833Z" fill="#9370DB"/>
<path d="M249.614 188.522L270.635 195.188C267.412 206.906 262.041 215.622 254.521 221.335C247.051 226.999 237.554 229.831 226.03 229.831C211.772 229.831 200.054 224.973 190.874 215.256C181.694 205.49 177.104 192.16 177.104 175.266C177.104 157.395 181.719 143.527 190.947 133.664C200.176 123.752 212.31 118.796 227.349 118.796C240.483 118.796 251.152 122.678 259.355 130.441C264.238 135.031 267.9 141.623 270.342 150.217L248.882 155.344C247.612 149.777 244.951 145.383 240.898 142.16C236.895 138.938 232.012 137.326 226.25 137.326C218.291 137.326 211.821 140.183 206.841 145.896C201.909 151.608 199.443 160.861 199.443 173.654C199.443 187.229 201.885 196.896 206.768 202.658C211.65 208.42 217.998 211.301 225.811 211.301C231.572 211.301 236.528 209.47 240.679 205.808C244.829 202.146 247.808 196.384 249.614 188.522ZM289.678 201.267H279.717V185.153H292.9L297.295 163.547H279.717V147.36H300.591L306.377 118.796H322.783L316.997 147.36H333.184L338.823 118.796H355.815L349.956 147.36H360.063V163.547H346.66L342.266 185.153H360.063V201.267H338.97L333.184 229.831H316.851L322.49 201.267H306.23L300.444 229.831H283.892L289.678 201.267ZM313.774 163.547L309.453 185.153H325.713L329.961 163.547H313.774Z" fill="#9370DB"/>
</svg>
