<?xml version="1.0" encoding="UTF-8"?>
<svg id="Layer_1" xmlns="http://www.w3.org/2000/svg" viewBox="0 0 33.32 33.27">
  <defs>
    <style>
      .cls-1 {
        opacity: .7;
      }

      .cls-1, .cls-2, .cls-3, .cls-4 {
        fill: #9370db;
        isolation: isolate;
      }

      .cls-2 {
        opacity: .8;
      }

      .cls-3 {
        opacity: .5;
      }

      .cls-5 {
        fill: #6a0dad;
      }

      .cls-4 {
        opacity: .6;
      }
    </style>
  </defs>
  <path class="cls-5" d="M12.87.42c-1.33.3-2.48,1.37-2.9,2.7-.12.4-.14.63-.17,1.98l-.03,1.53h-3.4c-3.15,0-3.42,0-3.74.12-.59.2-.9.39-1.28.77-.44.45-.68.86-.84,1.48-.11.44-.12.73-.12,3.59v3.11h1.4c1.63,0,2.03.06,2.83.46.43.21.66.37,1.07.79.44.44.58.62.82,1.14.16.33.33.79.37,1.02.1.55.05,1.61-.13,2.14-.32,1.02-1.13,1.96-2.07,2.43-.84.42-1.11.47-2.81.51l-1.49.04v3.13c0,2.57.02,3.2.1,3.5.3,1.17,1.16,2.03,2.33,2.33.3.08.93.1,3.5.1h3.13l.04-1.5c.04-1.69.08-1.96.51-2.81.48-.95,1.42-1.75,2.43-2.07.53-.17,1.58-.23,2.14-.13.23.05.68.21,1.02.37,1.15.55,2.03,1.67,2.28,2.89.06.31.1.87.1,1.84v1.4h3.14c2.86,0,3.19-.01,3.6-.12,1.07-.28,1.9-1.09,2.23-2.18.08-.25.1-.92.1-3.69v-3.39l1.53-.03c1.34-.03,1.58-.05,1.98-.17,1.36-.44,2.42-1.59,2.71-2.97.41-1.92-.78-3.93-2.68-4.54-.28-.09-.68-.12-1.93-.15l-1.58-.04-.03-3.51c-.03-3.1-.05-3.54-.14-3.78-.37-.91-1.02-1.57-1.94-1.94-.24-.1-.68-.11-3.78-.14l-3.51-.03-.04-1.58c-.03-1.25-.06-1.65-.15-1.93-.39-1.2-1.32-2.14-2.59-2.58-.5-.17-1.45-.22-2.01-.09Z"/>
  <path class="cls-2" d="M3.2,5.34c1.18,0,2.13-.96,2.13-2.13s-.96-2.13-2.13-2.13-2.13.96-2.13,2.13.96,2.13,2.13,2.13Z"/>
  <path class="cls-1" d="M28.11,4.63c.79,0,1.42-.64,1.42-1.42s-.64-1.42-1.42-1.42-1.42.64-1.42,1.42.64,1.42,1.42,1.42Z"/>
  <path class="cls-4" d="M3.2,30.95c1.57,0,2.85-1.27,2.85-2.85s-1.27-2.85-2.85-2.85-2.85,1.27-2.85,2.85,1.27,2.85,2.85,2.85Z"/>
  <path class="cls-2" d="M28.11,30.24c1.18,0,2.13-.96,2.13-2.13s-.96-2.13-2.13-2.13-2.13.96-2.13,2.13.96,2.13,2.13,2.13Z"/>
  <path class="cls-3" d="M16.54,20.1c1.96,0,3.56-1.59,3.56-3.56s-1.59-3.56-3.56-3.56-3.56,1.59-3.56,3.56,1.59,3.56,3.56,3.56Z"/>
  <path class="cls-4" d="M8.54,2.85c.79,0,1.42-.64,1.42-1.42s-.64-1.42-1.42-1.42-1.42.64-1.42,1.42.64,1.42,1.42,1.42Z"/>
  <path class="cls-1" d="M22.77,2.85c.79,0,1.42-.64,1.42-1.42s-.64-1.42-1.42-1.42-1.42.64-1.42,1.42.64,1.42,1.42,1.42Z"/>
  <path class="cls-4" d="M8.54,31.31c.79,0,1.42-.64,1.42-1.42s-.64-1.42-1.42-1.42-1.42.64-1.42,1.42.64,1.42,1.42,1.42Z"/>
  <path class="cls-1" d="M22.77,31.31c.79,0,1.42-.64,1.42-1.42s-.64-1.42-1.42-1.42-1.42.64-1.42,1.42.64,1.42,1.42,1.42Z"/>
  <path class="cls-3" d="M1.42,17.97c.79,0,1.42-.64,1.42-1.42s-.64-1.42-1.42-1.42-1.42.64-1.42,1.42.64,1.42,1.42,1.42Z"/>
  <path class="cls-3" d="M29.89,17.97c.79,0,1.42-.64,1.42-1.42s-.64-1.42-1.42-1.42-1.42.64-1.42,1.42.64,1.42,1.42,1.42Z"/>
</svg>