<svg width="32" height="24" viewBox="0 0 32 24" fill="none" xmlns="http://www.w3.org/2000/svg">
<g clip-path="url(#clip0_53_432)">
<path d="M26.6667 4H5.33335C3.86669 4 2.66669 4.9 2.66669 6V18C2.66669 19.1 3.86669 20 5.33335 20H26.6667C28.1334 20 29.3334 19.1 29.3334 18V6C29.3334 4.9 28.1334 4 26.6667 4ZM26.1334 8.25L17.4134 12.34C16.5467 12.75 15.4534 12.75 14.5867 12.34L5.86669 8.25C5.53335 8.09 5.33335 7.82 5.33335 7.53C5.33335 6.86 6.30669 6.46 7.06669 6.81L16 11L24.9334 6.81C25.6934 6.46 26.6667 6.86 26.6667 7.53C26.6667 7.82 26.4667 8.09 26.1334 8.25Z" fill="white"/>
</g>
<defs>
<clipPath id="clip0_53_432">
<rect width="32" height="24" fill="white"/>
</clipPath>
</defs>
</svg>
