<svg width="133" height="138" viewBox="0 0 133 138" fill="none" xmlns="http://www.w3.org/2000/svg">
<path d="M116.673 77.28C102.283 96.78 31.7827 99.36 16.9227 79.33C11.9927 72.69 19.9827 46.39 19.9827 46.39L110.113 48.69C110.113 48.69 121.023 71.38 116.673 77.28Z" fill="#D9A855"/>
<path d="M113.613 50.21C113.613 24.69 92.9227 4 67.3927 4C41.8627 4 21.1827 24.69 21.1827 50.21" fill="#D9A855"/>
<path d="M18.1127 79.34C9.37274 77.68 3.63274 69.26 5.28274 60.52C6.93274 51.78 13.7227 45.5 22.4527 47.15C22.4527 47.15 37.2627 56.85 52.3227 57.87" fill="#D9A855"/>
<path d="M116.673 77.28C125.103 74.47 131.373 69.29 129.713 60.55C128.053 51.81 121.273 45.53 112.543 47.18C112.543 47.18 97.7327 56.88 82.6727 57.9" fill="#D9A855"/>
<path d="M117.357 78L116.643 81.5354L107.507 126.844C107.507 126.844 90.4431 133.1 68.2355 133.514C46.278 133.926 27.0739 126.668 27.0739 126.668L16.0019 79.0079C16.0019 79.0079 39.7846 84.7026 66.8558 84.7628C93.927 84.8231 116.143 78.5354 116.143 78.5354L117.357 78Z" fill="#67519A" stroke="#1D1D1B" stroke-width="8" stroke-miterlimit="10"/>
<path d="M112.691 50.2087C112.502 24.6894 91.6602 4.15264 66.1408 4.34095C40.6215 4.52926 20.0748 25.3714 20.2631 50.8907" stroke="#1D1D1B" stroke-width="8" stroke-miterlimit="10"/>
<path d="M16.6971 83.978C6.27444 82.2948 -1.39475 71.5911 0.418456 61.1775C1.52249 53.5891 6.59819 46.2115 14.3233 44.1644C17.2175 43.373 20.188 43.4311 23.0025 44.0204L23.6857 44.4553C31.8235 50.9055 41.1327 56.1869 51.4684 58.2707C46.3227 58.8787 40.5052 57.8716 35.2063 56.6907C29.7363 55.361 24.4932 53.5996 19.3552 51.1775L20.8094 51.7468C10.7241 49.7011 4.7176 63.7558 10.4528 71.2137C12.2616 73.7604 15.0548 75.5399 18.139 76.0871L16.707 83.9579L16.6971 83.978Z" fill="#1D1D1B"/>
<path d="M113.965 75.7328C119.99 73.6383 125.853 70.0649 124.172 63.1172C122.967 57.0659 118.02 52.0023 111.67 53.3692L113.115 52.7785C103.17 57.492 92.1141 60.7937 81.1112 60.4448C89.9956 58.2992 98.3939 53.9771 105.753 48.4527C106.768 47.6952 107.842 46.8672 108.686 46.121L110.132 45.5303C123.701 42.6201 134.553 56.3904 132.056 69.0992C130.372 76.6218 123.254 81.0644 116.551 83.304L113.965 75.7328Z" fill="#1D1D1B"/>
</svg>
