<svg width="451" height="521" viewBox="0 0 451 721" fill="none" xmlns="http://www.w3.org/2000/svg">
<path opacity="0.3" d="M225.5 702.975C265.353 702.975 297.66 694.905 297.66 684.95C297.66 674.995 265.353 666.925 225.5 666.925C185.647 666.925 153.34 674.995 153.34 684.95C153.34 694.905 185.647 702.975 225.5 702.975Z" fill="#4B0082"/>
<path d="M288.64 216.3H162.36C147.415 216.3 135.3 228.405 135.3 243.338V459.638C135.3 474.57 147.415 486.675 162.36 486.675H288.64C303.585 486.675 315.7 474.57 315.7 459.638V243.338C315.7 228.405 303.585 216.3 288.64 216.3Z" fill="#6A0DAD" stroke="#4B0082" stroke-width="4"/>
<path opacity="0.2" d="M256.168 279.387H194.832C186.861 279.387 180.4 285.844 180.4 293.807V409.167C180.4 417.131 186.861 423.587 194.832 423.587H256.168C264.139 423.587 270.6 417.131 270.6 409.167V293.807C270.6 285.844 264.139 279.387 256.168 279.387Z" fill="white" stroke="#4B0082" stroke-width="2"/>
<path d="M225.5 315.438C230.482 315.438 234.52 311.403 234.52 306.425C234.52 301.448 230.482 297.413 225.5 297.413C220.518 297.413 216.48 301.448 216.48 306.425C216.48 311.403 220.518 315.438 225.5 315.438Z" fill="#4B0082"/>
<path d="M225.5 360.5C230.482 360.5 234.52 356.465 234.52 351.488C234.52 346.51 230.482 342.475 225.5 342.475C220.518 342.475 216.48 346.51 216.48 351.488C216.48 356.465 220.518 360.5 225.5 360.5Z" fill="#4B0082"/>
<path d="M225.5 405.563C230.482 405.563 234.52 401.528 234.52 396.55C234.52 391.573 230.482 387.538 225.5 387.538C220.518 387.538 216.48 391.573 216.48 396.55C216.48 401.528 220.518 405.563 225.5 405.563Z" fill="#4B0082"/>
<path d="M276.012 72.1001H174.988C163.032 72.1001 153.34 81.7842 153.34 93.7301V194.67C153.34 206.616 163.032 216.3 174.988 216.3H276.012C287.968 216.3 297.66 206.616 297.66 194.67V93.7301C297.66 81.7842 287.968 72.1001 276.012 72.1001Z" fill="#9370DB" stroke="#4B0082" stroke-width="4"/>
<path d="M225.5 72.1001V36.05" stroke="#4B0082" stroke-width="3"/>
<path d="M225.5 46.8651C231.478 46.8651 236.324 42.0231 236.324 36.0501C236.324 30.0771 231.478 25.2351 225.5 25.2351C219.522 25.2351 214.676 30.0771 214.676 36.0501C214.676 42.0231 219.522 46.8651 225.5 46.8651Z" fill="#4B0082"/>
<path d="M198.44 158.62C206.411 158.62 212.872 152.164 212.872 144.2C212.872 136.236 206.411 129.78 198.44 129.78C190.469 129.78 184.008 136.236 184.008 144.2C184.008 152.164 190.469 158.62 198.44 158.62Z" fill="white"/>
<path d="M252.56 158.62C260.531 158.62 266.992 152.164 266.992 144.2C266.992 136.236 260.531 129.78 252.56 129.78C244.589 129.78 238.128 136.236 238.128 144.2C238.128 152.164 244.589 158.62 252.56 158.62Z" fill="white"/>
<path d="M198.44 149.607C201.429 149.607 203.852 147.186 203.852 144.2C203.852 141.214 201.429 138.792 198.44 138.792C195.451 138.792 193.028 141.214 193.028 144.2C193.028 147.186 195.451 149.607 198.44 149.607Z" fill="#4B0082"/>
<path d="M252.56 149.607C255.549 149.607 257.972 147.186 257.972 144.2C257.972 141.214 255.549 138.792 252.56 138.792C249.571 138.792 247.148 141.214 247.148 144.2C247.148 147.186 249.571 149.607 252.56 149.607Z" fill="#4B0082"/>
<path d="M189.42 126.175C195.433 120.167 201.447 120.167 207.46 126.175" stroke="#4B0082" stroke-width="2"/>
<path d="M243.54 126.175C249.553 120.167 255.567 120.167 261.58 126.175" stroke="#4B0082" stroke-width="2"/>
<path d="M198.44 180.25C216.48 198.275 234.52 198.275 252.56 180.25" stroke="#4B0082" stroke-width="3"/>
<path d="M126.28 252.35H108.24C103.258 252.35 99.22 256.385 99.22 261.363V387.538C99.22 392.515 103.258 396.55 108.24 396.55H126.28C131.262 396.55 135.3 392.515 135.3 387.538V261.363C135.3 256.385 131.262 252.35 126.28 252.35Z" fill="#6A0DAD" stroke="#4B0082" stroke-width="3"/>
<path d="M117.26 405.563C122.242 405.563 126.28 401.528 126.28 396.55C126.28 391.573 122.242 387.538 117.26 387.538C112.278 387.538 108.24 391.573 108.24 396.55C108.24 401.528 112.278 405.563 117.26 405.563Z" fill="#4B0082"/>
<path d="M99.22 288.4H135.3" stroke="#4B0082" stroke-width="2"/>
<path d="M99.22 360.5H135.3" stroke="#4B0082" stroke-width="2"/>
<path d="M342.76 252.35H324.72C319.738 252.35 315.7 256.385 315.7 261.363V387.538C315.7 392.515 319.738 396.55 324.72 396.55H342.76C347.742 396.55 351.78 392.515 351.78 387.538V261.363C351.78 256.385 347.742 252.35 342.76 252.35Z" fill="#6A0DAD" stroke="#4B0082" stroke-width="3"/>
<path d="M333.74 405.563C338.722 405.563 342.76 401.528 342.76 396.55C342.76 391.573 338.722 387.538 333.74 387.538C328.758 387.538 324.72 391.573 324.72 396.55C324.72 401.528 328.758 405.563 333.74 405.563Z" fill="#4B0082"/>
<path d="M315.7 288.4H351.78" stroke="#4B0082" stroke-width="2"/>
<path d="M315.7 360.5H351.78" stroke="#4B0082" stroke-width="2"/>
<path d="M198.44 486.675H180.4C175.418 486.675 171.38 490.71 171.38 495.688V657.913C171.38 662.89 175.418 666.925 180.4 666.925H198.44C203.422 666.925 207.46 662.89 207.46 657.913V495.688C207.46 490.71 203.422 486.675 198.44 486.675Z" fill="#6A0DAD" stroke="#4B0082" stroke-width="3"/>
<path d="M189.42 675.938C194.402 675.938 198.44 671.903 198.44 666.925C198.44 661.948 194.402 657.913 189.42 657.913C184.438 657.913 180.4 661.948 180.4 666.925C180.4 671.903 184.438 675.938 189.42 675.938Z" fill="#4B0082"/>
<path d="M270.6 486.675H252.56C247.578 486.675 243.54 490.71 243.54 495.688V657.913C243.54 662.89 247.578 666.925 252.56 666.925H270.6C275.582 666.925 279.62 662.89 279.62 657.913V495.688C279.62 490.71 275.582 486.675 270.6 486.675Z" fill="#6A0DAD" stroke="#4B0082" stroke-width="3"/>
<path d="M261.58 675.938C266.562 675.938 270.6 671.903 270.6 666.925C270.6 661.948 266.562 657.913 261.58 657.913C256.598 657.913 252.56 661.948 252.56 666.925C252.56 671.903 256.598 675.938 261.58 675.938Z" fill="#4B0082"/>
</svg>
